ply
format ascii 1.0
comment VCGLIB generated
element vertex 485
property float x
property float y
property float z
element face 777
property list uchar int vertex_indices
end_header
83.8584 -397.982 -1511.79 
132.192 -397.778 -1684.22 
-242.226 -370.697 -1640.26 
-3.50727 -111.887 -1511.67 
39.3493 -347.323 -1497.5 
184.734 -321.163 -1562.1 
-200.609 -269.747 -1561.46 
-233.605 -344.208 -1547.14 
40.7793 -231.496 -1548.02 
-73.274 -141.917 -1625.43 
41.3849 -7.17338 -1693.39 
103.83 -293.188 -1683.38 
84.6482 -195.503 -1620.59 
-189.51 -214.573 -1614.65 
89.9906 -376.82 -1699.46 
26.3175 -10.6456 -1510.5 
112.131 -350.522 -1692.47 
-41.1251 -48.5376 -1698.42 
50.539 -252.899 -1689.73 
-131.857 -205.481 -1586.33 
29.3812 76.2301 -1653.46 
48.7032 -36.1074 -1612.68 
25.7053 -203.73 -1567.57 
10.5021 88.6967 -1615.17 
38.5088 -343.579 -1705.24 
53.5478 -29.674 -1612.67 
-215.014 -328.007 -1661.9 
-206.332 -384.259 -1675.85 
-54.0537 16.7596 -1508.93 
58.2582 -24.348 -1613.28 
6.23705 -301.151 -1696.5 
-83.2596 -61.015 -1664.95 
-77.5252 -302.73 -1696.11 
-134.649 -356.55 -1697.83 
5.58604 -2.58542 -1728.87 
-234.565 -341.942 -1644.89 
5.65048 14.0865 -1500.31 
-73.9891 -62.9274 -1657.67 
4.66766 -120.439 -1643.89 
-47.1877 -13.7557 -1506.79 
-140.163 -252.444 -1675.66 
-213.683 -316.463 -1540.26 
54.7766 -23.7335 -1571.46 
53.8171 -22.6701 -1555.51 
15.8643 -64.7022 -1659.62 
23.9315 -125.859 -1594.74 
54.5718 -37.0483 -1612.05 
58.5299 -23.9118 -1587.06 
154.499 -327.394 -1540.24 
-212.723 -381.302 -1523.13 
10.4922 -171.327 -1572.9 
-99.3825 -329.121 -1701.1 
-231.126 -385.487 -1656.75 
61.1255 -14.5155 -1588.27 
-99.465 -32.1321 -1585.43 
-29.6371 86.1083 -1565.86 
-46.7447 -120.45 -1647.2 
-88.3761 -28.4865 -1567.73 
61.3303 -14.9252 -1588.06 
47.1864 -56.7133 -1595.62 
-101.198 -10.5251 -1595.14 
58.6678 -7.96056 -1605.9 
-97.3909 -39.5064 -1590.73 
57.5163 57.271 -1641.33 
124.512 -320.128 -1682.4 
-192.181 -372.464 -1518.61 
119.78 -353.024 -1527.1 
48.9115 -310.079 -1512.42 
-21.1866 -162.386 -1557.55 
183.99 -354.627 -1650.39 
-60.594 -252.33 -1687.58 
10.1299 -28.2401 -1723.17 
52.3479 -16.9582 -1667.02 
47.1512 -51.5295 -1633.67 
198.832 -322.325 -1593.96 
11.9255 67.6322 -1677.69 
22.7958 -131.088 -1623.11 
-106.129 10.1378 -1646.04 
57.6438 -16.564 -1659.82 
-36.7385 -319.463 -1498.04 
-53.319 73.456 -1548.62 
-17.0318 -361.274 -1706.03 
22.4571 -242.807 -1688.19 
60.8621 -14.8082 -1587.89 
-219.756 -370.264 -1526.86 
-106.093 -178.199 -1635.5 
14.6433 -185.264 -1667.47 
7.70452 40.5069 -1699.56 
210.835 -397.368 -1602.21 
137.965 -288.395 -1668.13 
49.6566 -19.0221 -1661.67 
-72.3615 -124.292 -1594.31 
-60.3218 82.3754 -1655.1 
-78.3444 -373.196 -1706.36 
-22.029 -52.7605 -1688.55 
-55.8651 -295.153 -1692.82 
58.463 -18.3543 -1610.82 
-68.7917 -35.6288 -1519.73 
-65.1151 40.2751 -1687.32 
64.4581 -308.864 -1696.71 
45.753 -218.305 -1678.84 
174.417 -272.587 -1605.69 
178.103 -294.176 -1582.66 
-79.9245 -272.82 -1689.91 
-159.473 -332.508 -1690 
62.8982 -258.447 -1540.03 
-81.0804 -167.333 -1646.66 
-83.6256 -38.345 -1549.8 
137.178 -232.305 -1595.03 
15.8811 -108.103 -1535.5 
-9.04998 -305.298 -1503.07 
-174.844 -244.216 -1562.03 
-128.164 -345.156 -1514.67 
-166.336 -269.203 -1548.99 
-106.659 -256.393 -1684.85 
-23.2233 -230.538 -1538.11 
58.2582 -8.37025 -1604.67 
37.9892 -282.18 -1694.23 
95.0983 -330.446 -1523.67 
-48.0098 -86.026 -1509.39 
1.93782 -50.3631 -1687.09 
194.412 -326.868 -1628.22 
29.8802 -158.159 -1603.72 
54.0622 -371.689 -1704.89 
16.3299 40.3096 -1512.19 
158.933 -293.98 -1559.95 
203.203 -350.022 -1576.53 
3.0875 81.0807 -1557.05 
-134.842 -278.534 -1545.65 
-11.2996 -193.178 -1560.31 
-183.925 -291.504 -1544.4 
108.418 -227.032 -1584.91 
32.3349 -50.3464 -1699.29 
-10.8577 -242.223 -1683.62 
-52.1298 85.448 -1654.08 
-23.4098 72.5978 -1534.45 
-11.4834 96.7485 -1641.71 
37.244 77.1868 -1625.31 
68.5136 -195.256 -1653.13 
84.268 -397.982 -1511.79 
93.5058 -319.674 -1693.42 
-102.149 -316.492 -1508.67 
-82.645 -30.0134 -1705.56 
-91.4018 -226.543 -1682.38 
51.0902 -37.2532 -1610.41 
35.0645 -314.397 -1701.03 
-24.1745 -308.184 -1697.15 
-47.7931 68.8187 -1678.53 
95.1257 -268.409 -1551.96 
16.3471 -367.541 -1706.03 
-49.8967 -177.293 -1563.88 
73.4784 -287.626 -1534.93 
-253.251 -369.57 -1575.13 
-212.759 -295.953 -1648.99 
-19.2875 -79.6669 -1496.35 
113.216 -262.624 -1676.66 
34.4698 43.1431 -1679.35 
78.3083 -218.691 -1670.09 
-32.4528 41.9972 -1703.38 
-69.9889 -323.587 -1497.89 
156.724 -295.734 -1557.48 
-25.9345 -260.664 -1519.86 
28.8111 -93.7318 -1592.98 
41.0293 -285.937 -1518.54 
-214.805 -295.422 -1557.93 
-228.385 -288.252 -1615.74 
57.897 -211.627 -1571.33 
145.708 -399.211 -1676.63 
57.9252 -17.6317 -1609.97 
45.9284 -54.8622 -1552.55 
201.677 -383.949 -1625.73 
180.676 -352.194 -1548.84 
-94.9493 -14.5472 -1581.31 
39.7383 -378.549 -1494.9 
-208.663 -236.438 -1609.51 
35.5253 -65.5216 -1656.34 
-231.594 -384.99 -1657.54 
-67.0805 -92.5303 -1534.23 
2.47295 -332.91 -1704.5 
11.6592 -143.473 -1572.26 
-57.0625 -237.668 -1535.49 
-38.7587 -48.225 -1500.02 
-109.032 -290.163 -1527.99 
34.091 -43.2336 -1523.98 
47.1125 -58.7516 -1668.49 
-73.3733 -75.3901 -1628.78 
52.654 -37.0097 -1688.33 
157.067 -324.808 -1542.29 
-42.6568 88.4525 -1592.88 
114.399 -211.476 -1618.07 
208.911 -382.73 -1590.98 
-94.154 -344.529 -1499.89 
-66.1135 -151.543 -1578.52 
-93.7922 -12.9061 -1586.69 
9.31068 -55.2794 -1674.79 
-15.6751 -30.2885 -1708.41 
54.1684 -178.687 -1629.65 
54.367 -37.6629 -1585.4 
-43.64 -119.815 -1534.82 
-93.2949 -12.8768 -1586.22 
59.8796 -30.6689 -1614.23 
92.133 -360.207 -1516.43 
73.5016 -344.303 -1701.81 
-51.4812 -27.9928 -1724.87 
196.731 -381.749 -1558.04 
-60.7314 82.3754 -1655.1 
71.0588 -313.793 -1522.96 
-162.868 -370.411 -1514.88 
170.104 -382.93 -1536.53 
62.7639 8.42691 -1582.94 
83.0733 -244.349 -1681.81 
-47.7519 19.2868 -1714.23 
54.367 -32.9515 -1586.42 
166.052 -288.491 -1645.3 
-192.124 -264.555 -1654.98 
-196.408 -233.435 -1641.35 
-94.6107 -49.3195 -1642 
49.4518 -64.2925 -1589.91 
-252.364 -370.394 -1608.81 
-75.3941 -89.2814 -1600.15 
-61.5247 -181.756 -1666.48 
-19.9355 -28.4183 -1715.52 
-136.622 -374.131 -1509.52 
-50.3026 -62.3154 -1674.43 
100.069 -209.156 -1646.87 
-49.6358 -374.744 -1484.76 
149.604 -349.233 -1676.17 
24.2556 15.4776 -1709.25 
-167.483 -233.79 -1661.22 
-20.1946 -125.376 -1530.35 
-219.323 -261.813 -1598.83 
6.7123 -27.3682 -1505.11 
60.1032 -8.96351 -1603.99 
-71.9696 -317.706 -1701.19 
64.5094 -34.2945 -1648.35 
15.1771 89.9145 -1646.69 
-118.02 -226.924 -1560.62 
46.3285 14.2761 -1676.78 
-89.0185 -233.575 -1545.09 
-15.6754 -86.167 -1495.78 
-7.39632 -131.642 -1552.87 
-247.383 -341.277 -1615.18 
-154.478 -222.297 -1574.78 
63.1223 -11.1813 -1599.52 
-105.731 42.5523 -1636.62 
-53.552 -148.365 -1652.69 
-90.6279 -195.926 -1668.24 
-107.045 -21.438 -1649.69 
-52.9641 85.0158 -1654.09 
-101.078 -296.651 -1691.55 
30.9776 -76.2234 -1530.18 
54.377 -35.8132 -1608.96 
49.4799 -317.895 -1507.57 
54.899 16.2103 -1548.46 
-58.6109 -212.118 -1680.07 
-140.063 -246.632 -1555.94 
-89.2228 23.4419 -1667.44 
-42.4607 -332.254 -1704.37 
-76.0322 -55.1586 -1689.29 
61.7754 21.821 -1603.17 
-88.1441 45.135 -1577.63 
-237.202 -316.448 -1564.66 
17.2045 -112.784 -1566.96 
-98.1029 -41.5704 -1675.57 
35.4109 -87.2184 -1558.71 
-126.123 -225.586 -1674.17 
-189.607 -328.293 -1677.74 
205.094 -353.453 -1613.2 
180.77 -384.997 -1652.7 
2.07781 -277.426 -1513.34 
160.629 -245.672 -1604.32 
-75.8867 -147.459 -1617.38 
-47.6838 -115.35 -1530.29 
-55.356 -266.537 -1518.64 
-43.1384 -293.328 -1508.25 
6.29139 -245.754 -1531.28 
-72.5072 26.6777 -1528.16 
-120.251 -196.791 -1659.05 
10.1825 -214.021 -1679.48 
-241.72 -385.637 -1643.41 
18.1499 -383.559 -1705.83 
-16.486 -15.2541 -1498.26 
-76.1097 -7.63396 -1531.85 
-84.3165 63.7579 -1606.96 
-63.0046 87.7295 -1619.77 
162.718 -257.222 -1634.43 
-108.709 5.56684 -1618.87 
-84.7529 -54.7451 -1610.13 
-205.92 -341.897 -1527.86 
-13.7804 50.7378 -1509.76 
61.3608 5.14229 -1574.62 
-76.7999 -183.836 -1582.07 
35.9171 -18.0686 -1716.81 
142.014 -255.023 -1657.57 
-149.653 -207.059 -1654.73 
-184.532 -222.799 -1586.3 
-51.8013 -87.9972 -1649.23 
-10.5771 -174.305 -1667.36 
32.3473 67.8023 -1561.67 
-84.8844 -59.4315 -1578.32 
-235.185 -312.167 -1631.57 
11.8841 -377.293 -1486.42 
2.83171 -45.6053 -1696.55 
-77.3437 -296.228 -1512.01 
-125.323 -313.247 -1526.54 
65.7491 -347.811 -1510.83 
-175.815 -345.342 -1522.96 
137.789 -383.183 -1526.05 
21.1119 -96.6765 -1623.26 
105.807 -385.095 -1516.58 
-83.6727 -165.566 -1607.89 
-227.019 -287.44 -1583.22 
-107.055 -371.835 -1502.62 
69.1886 27.3791 -1631.92 
125.368 -319.593 -1537.01 
-186.6 -298.596 -1667.39 
84.6125 -209.413 -1589.72 
-73.6997 -92.9212 -1570.5 
153.358 -263.901 -1574.09 
-86.3316 -386.102 -1487.4 
108.025 -399.007 -1515.69 
-66.8949 -6.44071 -1719.37 
150.156 -353.015 -1533.64 
5.42781 -218.758 -1550.31 
3.1769 -87.8889 -1648.91 
8.19302 -85.7122 -1510.91 
68.6243 0.252495 -1650.51 
38.3925 -66.3409 -1669.46 
33.5153 -67.5263 -1613.65 
43.7473 -65.5273 -1582.54 
-62.3879 -80.4204 -1645.53 
-73.59 52.3278 -1544.8 
-255.374 -384.673 -1592.9 
-29.0618 -111.26 -1505.48 
35.7298 17.9548 -1519.95 
47.0141 -64.8845 -1586.04 
-182.57 -315.497 -1532.14 
54.7928 -31.7189 -1585.85 
-79.4929 -68.7129 -1547.3 
10.8174 -344.769 -1494.66 
127.276 -328.745 -1532.3 
59.2582 -22.3096 -1586.03 
21.139 -311.545 -1503.87 
-10.5631 23.9188 -1723.08 
-219.629 -367.657 -1665.69 
96.591 -305.353 -1544.38 
60.4979 -18.7657 -1610.5 
34.4887 -184.587 -1590.08 
-202.37 -246.382 -1577.71 
181.689 -301.405 -1618.08 
-240.62 -385.242 -1643.74 
59.2141 -188.878 -1600.99 
32.4162 -257.663 -1527.86 
39.9302 -187.884 -1660.12 
154.569 -381.375 -1672.83 
12.6192 64.0913 -1532.28 
-79.2772 -370.42 -1490.67 
-76.1227 -356.951 -1705.56 
139.827 -228.78 -1631.97 
-12.5397 -50.0832 -1484.04 
53.2824 51.4433 -1610.79 
-137.141 -190.155 -1627.64 
-66.3934 82.1123 -1651.81 
54.9785 32.4039 -1656.94 
69.4878 -381.37 -1508.35 
55.6544 -22.3289 -1664.01 
-22.8391 -75.3482 -1665.97 
-90.6108 -10.4333 -1676.3 
-37.0306 -236.25 -1682.81 
-214.727 -264.182 -1632.84 
-45.991 49.7225 -1517.69 
-71.9592 7.23142 -1693.42 
-16.2169 61.7632 -1691.77 
-92.5611 -33.0125 -1587.61 
-80.9379 55.1707 -1661.14 
26.4883 -68.8608 -1645.81 
-16.1133 80.5878 -1667.77 
-102.534 -27.1227 -1619.31 
-90.6872 70.4827 -1634.58 
53.7775 42.8786 -1575.34 
-68.7516 -210.41 -1557.86 
81.7154 -237.268 -1562.92 
114.834 -231.429 -1660.51 
-150.48 -302.595 -1541.6 
125.221 -380.278 -1688.29 
50.6365 -46.6822 -1600.52 
-152.786 -327.922 -1523.5 
152.656 -317.197 -1667.45 
11.6284 -62.3185 -1671.01 
-85.3076 -54.8697 -1604.26 
119.798 -253.137 -1566.58 
-100.945 34.0177 -1607.1 
4.82485 -269.988 -1690.97 
-59.5371 -116.948 -1560.89 
-87.5861 19.963 -1553.37 
-22.6276 -103.116 -1651.49 
69.3221 -5.62447 -1625.24 
-68.2512 73.4461 -1578.62 
-48.0897 -363.357 -1706.4 
-129.536 -284.355 -1681.87 
-42.5014 -139.558 -1556.12 
-194.369 -360.553 -1681.01 
-159.169 -202.396 -1604.76 
-90.6916 -11.4262 -1564.74 
9.56582 -153.326 -1653.72 
-242.466 -312.741 -1596.81 
-30.6673 -1.55373 -1730.16 
-36.1261 -174.337 -1667.38 
-98.0112 -204.758 -1571.79 
-157.38 -301.983 -1680.35 
-39.4866 -206.595 -1554.53 
-248.755 -342.132 -1579.84 
-63.9156 -62.2734 -1516.73 
-164.191 -270.012 -1668.79 
34.9055 69.7365 -1656.12 
-16.0783 -339.993 -1494.57 
15.0451 -383.234 -1705.34 
-241.802 -372.518 -1545.89 
-18.4834 -372.484 -1486.48 
12.6015 -30.5517 -1719.6 
-105.451 -358.394 -1703.04 
-50.7269 -348.716 -1493.54 
44.5036 -11.9181 -1532.63 
-171.773 -206.483 -1636.04 
127.082 -397.351 -1686.6 
10.5643 -57.6911 -1505.66 
59.6458 -48.5132 -1654.86 
41.2242 44.3685 -1540.13 
-22.1758 -205.387 -1677.05 
-98.5131 12.2383 -1582.82 
-49.8888 -47.4706 -1705.59 
-25.7092 20.8449 -1498.66 
76.5378 -275.418 -1689.59 
-25.2028 94.013 -1614.84 
-40.6162 93.9867 -1646.3 
-67.8205 -110.141 -1626.23 
-109.901 -257.961 -1540.38 
-28.0514 -276.588 -1686.33 
53.7364 -32.1602 -1581.85 
-129.485 -319.156 -1694.61 
-20.1751 -139.527 -1656.33 
30.8611 -160.088 -1637.01 
34.0174 72.8698 -1591.41 
-111.167 -187.34 -1601.76 
175.268 -323.883 -1652.62 
-83.2769 -265.152 -1525.12 
54.367 -30.2885 -1613.28 
-0.576867 88.2218 -1586.42 
125.802 -286.251 -1551.79 
-165.634 -360.356 -1691.47 
-147.275 -373.535 -1695.87 
-204.281 -382.051 -1677.2 
-232.325 -384.978 -1653.54 
-249.689 -383.471 -1625.92 
-180.809 -375.272 -1687.01 
-119.197 -373.054 -1700.65 
-91.1129 -375.09 -1704.67 
-68.2139 -376.518 -1705.79 
-30.9114 -378.491 -1705.76 
-256.284 -383.895 -1591.35 
-251.584 -384.307 -1559.74 
-232.956 -386.366 -1533.89 
-207.715 -387.132 -1521.43 
-175.727 -387.515 -1512.64 
-154.49 -387.382 -1510.74 
-120.725 -387.509 -1503.53 
-93.7159 -387.37 -1495.68 
-66.375 -385.771 -1482.97 
-30.4337 -387.383 -1482.32 
106.249 -394.935 -1694.69 
-5.37877 -381.096 -1705.26 
35.3133 -384.176 -1705.34 
71.8921 -388.661 -1701.69 
140.361 -397.669 -1680.05 
164.062 -399.025 -1664.35 
191.063 -400.071 -1638.94 
124.333 -398.828 -1520.73 
154.988 -398.221 -1530.77 
-7.1719 -391.383 -1482.27 
28.6309 -392.438 -1483.72 
88.442 -397.107 -1512.16 
52.6721 -394.952 -1502.23 
207.538 -399.392 -1608.58 
206.336 -397.412 -1573.6 
186.699 -398.428 -1546.3 
3 33 449 104 
3 369 174 215 
3 214 369 215 
3 174 369 230 
3 413 214 228 
3 214 215 228 
3 40 399 413 
3 40 413 228 
3 265 40 228 
3 294 265 228 
3 228 215 423 
3 13 423 215 
3 174 13 215 
3 228 423 294 
3 13 402 423 
3 361 294 423 
3 361 423 402 
3 399 439 409 
3 439 399 249 
3 95 233 249 
3 95 249 103 
3 146 95 437 
3 26 344 35 
3 344 26 401 
3 26 266 401 
3 35 344 2 
3 241 2 218 
3 35 2 241 
3 26 153 315 
3 241 300 35 
3 300 26 35 
3 153 26 300 
3 214 153 369 
3 165 153 300 
3 165 369 153 
3 449 401 104 
3 266 104 401 
3 266 315 409 
3 104 266 409 
3 266 26 315 
3 214 315 153 
3 413 315 214 
3 439 104 409 
3 409 413 399 
3 315 413 409 
3 420 51 357 
3 439 420 33 
3 51 420 439 
3 104 439 33 
3 439 249 51 
3 233 51 249 
3 357 51 233 
3 398 357 257 
3 257 81 398 
3 357 233 257 
3 257 233 95 
3 146 257 95 
3 40 114 399 
3 114 249 399 
3 114 40 265 
3 103 249 114 
3 143 114 265 
3 70 114 143 
3 294 277 265 
3 265 277 143 
3 246 143 277 
3 277 85 246 
3 361 277 294 
3 85 277 361 
3 85 361 443 
3 85 106 246 
3 85 310 106 
3 310 9 106 
3 70 103 114 
3 70 95 103 
3 368 70 254 
3 70 143 254 
3 437 95 70 
3 437 70 368 
3 437 368 133 
3 368 254 428 
3 246 254 143 
3 220 254 246 
3 220 246 106 
3 106 245 220 
3 428 254 407 
3 220 407 254 
3 428 407 297 
3 245 407 220 
3 245 440 407 
3 106 9 245 
3 128 182 436 
3 436 182 445 
3 238 436 445 
3 180 445 273 
3 238 445 180 
3 180 273 161 
3 273 274 161 
3 115 410 180 
3 161 115 180 
3 411 218 152 
3 241 218 411 
3 7 411 152 
3 152 417 7 
3 405 300 241 
3 405 241 411 
3 405 165 300 
3 311 165 405 
3 411 7 261 
3 261 405 411 
3 261 311 405 
3 41 261 7 
3 164 6 311 
3 164 311 261 
3 164 261 41 
3 6 164 130 
3 164 41 130 
3 113 130 383 
3 128 113 383 
3 417 84 7 
3 288 7 84 
3 288 84 65 
3 288 41 7 
3 65 306 288 
3 207 306 65 
3 306 207 386 
3 112 207 222 
3 112 386 207 
3 336 41 288 
3 336 288 306 
3 306 386 336 
3 336 130 41 
3 383 336 386 
3 383 386 304 
3 383 130 336 
3 369 165 230 
3 230 165 311 
3 230 348 174 
3 348 295 174 
3 311 6 230 
3 6 348 230 
3 295 13 174 
3 348 6 111 
3 6 113 111 
3 130 113 6 
3 295 348 111 
3 255 111 113 
3 255 113 128 
3 242 295 111 
3 255 242 111 
3 295 402 13 
3 242 19 402 
3 242 402 295 
3 312 191 112 
3 112 222 312 
3 312 356 191 
3 304 386 112 
3 304 112 141 
3 383 304 128 
3 128 304 182 
3 191 141 112 
3 141 303 182 
3 445 182 303 
3 141 191 159 
3 159 303 141 
3 421 191 356 
3 421 159 191 
3 421 356 225 
3 415 421 418 
3 421 225 418 
3 273 445 303 
3 274 273 303 
3 79 274 159 
3 79 159 421 
3 274 303 159 
3 79 421 415 
3 110 274 79 
3 436 255 128 
3 255 236 242 
3 19 242 236 
3 236 255 436 
3 238 236 436 
3 236 238 408 
3 380 408 238 
3 19 361 402 
3 361 19 443 
3 443 408 291 
3 19 408 443 
3 310 85 443 
3 291 310 443 
3 408 19 236 
3 410 380 180 
3 238 180 380 
3 310 291 192 
3 291 380 150 
3 150 380 410 
3 380 291 408 
3 150 192 291 
3 192 150 400 
3 150 410 129 
3 150 129 68 
3 68 400 150 
3 258 263 142 
3 142 203 430 
3 203 142 321 
3 258 142 430 
3 430 203 221 
3 221 203 406 
3 94 430 221 
3 367 371 142 
3 142 371 321 
3 371 211 321 
3 98 211 371 
3 406 321 211 
3 406 203 321 
3 406 211 343 
3 158 343 211 
3 158 211 98 
3 98 147 158 
3 263 247 367 
3 367 142 263 
3 37 216 263 
3 258 37 263 
3 185 287 216 
3 263 216 247 
3 247 216 377 
3 287 377 216 
3 395 296 366 
3 245 9 56 
3 435 56 9 
3 56 435 296 
3 185 296 435 
3 56 440 245 
3 56 395 440 
3 395 56 296 
3 37 258 223 
3 223 258 430 
3 37 223 296 
3 366 223 94 
3 366 296 223 
3 223 430 94 
3 185 37 296 
3 37 185 216 
3 256 371 367 
3 367 247 77 
3 256 367 77 
3 286 77 247 
3 286 247 377 
3 244 77 286 
3 256 77 244 
3 374 256 244 
3 391 244 286 
3 378 362 374 
3 374 244 378 
3 244 283 378 
3 98 256 374 
3 256 98 371 
3 147 98 374 
3 374 362 147 
3 147 372 158 
3 372 147 376 
3 147 362 434 
3 434 376 147 
3 434 362 284 
3 378 283 284 
3 284 362 378 
3 136 376 434 
3 433 136 434 
3 433 434 284 
3 287 373 377 
3 373 60 377 
3 373 287 299 
3 299 338 107 
3 373 299 107 
3 403 373 107 
3 310 91 9 
3 435 9 91 
3 192 91 310 
3 219 185 435 
3 91 219 435 
3 219 91 317 
3 400 393 192 
3 393 91 192 
3 91 393 317 
3 177 338 317 
3 177 317 393 
3 240 400 68 
3 400 272 393 
3 229 400 240 
3 219 299 287 
3 287 185 219 
3 219 317 299 
3 317 338 299 
3 272 177 393 
3 272 119 177 
3 229 272 400 
3 229 333 272 
3 119 272 333 
3 154 119 333 
3 338 177 412 
3 97 338 412 
3 119 412 177 
3 97 107 338 
3 282 107 97 
3 181 97 412 
3 181 39 97 
3 181 154 359 
3 181 412 119 
3 119 154 181 
3 39 181 281 
3 181 359 281 
3 286 377 60 
3 429 286 60 
3 391 286 429 
3 403 429 60 
3 394 429 403 
3 403 60 373 
3 282 394 403 
3 107 282 403 
3 429 394 260 
3 260 394 331 
3 244 391 283 
3 283 391 260 
3 394 276 331 
3 260 397 283 
3 397 284 283 
3 188 284 397 
3 433 284 188 
3 447 188 55 
3 260 331 397 
3 80 397 331 
3 397 80 55 
3 188 397 55 
3 55 80 135 
3 39 282 97 
3 276 282 28 
3 39 28 282 
3 282 276 394 
3 276 28 370 
3 281 431 39 
3 431 28 39 
3 431 370 28 
3 289 370 431 
3 331 276 370 
3 370 80 331 
3 80 370 135 
3 135 370 289 
3 30 146 437 
3 392 30 437 
3 140 99 11 
3 99 432 11 
3 384 14 16 
3 11 432 155 
3 293 155 382 
3 382 155 210 
3 157 382 210 
3 89 155 293 
3 382 224 358 
3 189 358 224 
3 285 213 293 
3 293 382 358 
3 293 358 285 
3 189 224 12 
3 285 358 270 
3 285 101 213 
3 270 101 285 
3 149 81 178 
3 24 149 178 
3 146 178 257 
3 178 81 257 
3 178 146 30 
3 145 24 178 
3 178 30 145 
3 117 30 392 
3 145 30 117 
3 24 123 149 
3 202 123 24 
3 14 123 202 
3 16 14 202 
3 99 24 145 
3 202 24 99 
3 99 145 117 
3 432 99 117 
3 140 202 99 
3 16 202 140 
3 392 437 133 
3 82 392 133 
3 133 368 428 
3 82 133 278 
3 428 278 133 
3 117 392 82 
3 18 117 82 
3 82 278 100 
3 100 18 82 
3 278 428 86 
3 428 297 86 
3 297 407 440 
3 404 297 440 
3 404 86 297 
3 353 100 278 
3 86 353 278 
3 86 404 441 
3 441 353 86 
3 122 441 76 
3 117 18 432 
3 210 18 100 
3 157 210 100 
3 432 18 210 
3 155 432 210 
3 157 224 382 
3 138 224 157 
3 353 138 100 
3 100 138 157 
3 138 353 196 
3 353 441 196 
3 122 196 441 
3 138 12 224 
3 138 196 12 
3 384 16 226 
3 226 354 384 
3 140 64 16 
3 64 140 11 
3 89 11 155 
3 89 64 11 
3 226 16 64 
3 226 64 387 
3 89 387 64 
3 89 213 387 
3 89 293 213 
3 226 444 69 
3 354 69 268 
3 226 69 354 
3 69 170 268 
3 170 69 267 
3 121 267 69 
3 444 226 387 
3 121 444 349 
3 444 387 213 
3 444 213 349 
3 349 213 101 
3 69 444 121 
3 148 151 345 
3 115 161 275 
3 269 275 161 
3 275 323 115 
3 352 275 269 
3 269 163 352 
3 275 352 8 
3 352 105 8 
3 163 105 352 
3 151 105 163 
3 148 105 151 
3 307 66 309 
3 201 66 118 
3 309 66 201 
3 307 322 66 
3 208 322 307 
3 314 118 66 
3 345 118 314 
3 322 314 66 
3 314 322 187 
3 187 322 171 
3 171 322 208 
3 204 171 208 
3 189 131 108 
3 270 108 318 
3 189 108 358 
3 270 358 108 
3 390 381 148 
3 148 448 390 
3 390 131 381 
3 390 108 131 
3 390 318 108 
3 318 390 448 
3 12 316 189 
3 316 131 189 
3 318 102 101 
3 101 270 318 
3 339 415 418 
3 301 339 418 
3 4 339 301 
3 4 301 173 
3 269 274 110 
3 269 161 274 
3 342 269 110 
3 163 269 342 
3 415 110 79 
3 339 110 415 
3 110 339 342 
3 4 342 339 
3 4 252 342 
3 309 201 364 
3 201 305 364 
3 118 305 201 
3 364 305 173 
3 4 173 305 
3 342 252 163 
3 163 206 151 
3 163 252 206 
3 118 345 206 
3 252 305 206 
3 118 206 305 
3 345 151 206 
3 252 4 305 
3 8 323 275 
3 22 323 8 
3 50 122 179 
3 122 50 347 
3 115 129 410 
3 323 129 115 
3 323 22 129 
3 50 179 68 
3 50 68 129 
3 179 240 68 
3 129 22 50 
3 50 22 347 
3 8 166 22 
3 166 8 381 
3 381 8 105 
3 105 148 381 
3 166 381 316 
3 131 316 381 
3 166 351 347 
3 166 316 351 
3 122 351 196 
3 122 347 351 
3 351 316 12 
3 12 196 351 
3 22 166 347 
3 448 148 345 
3 314 448 345 
3 187 160 314 
3 160 448 314 
3 448 160 318 
3 170 267 190 
3 267 126 190 
3 74 126 267 
3 126 204 190 
3 171 204 126 
3 349 101 102 
3 349 74 121 
3 121 74 267 
3 102 74 349 
3 74 102 5 
3 5 160 187 
3 5 187 171 
3 102 318 160 
3 5 102 160 
3 74 5 126 
3 5 171 126 
3 302 221 419 
3 221 302 94 
3 132 419 292 
3 419 132 302 
3 186 132 292 
3 292 10 186 
3 221 406 34 
3 34 406 343 
3 419 221 34 
3 343 158 87 
3 292 419 34 
3 292 34 227 
3 292 227 10 
3 227 343 87 
3 343 227 34 
3 87 156 227 
3 10 227 237 
3 158 372 87 
3 324 395 366 
3 38 440 395 
3 440 38 404 
3 38 395 324 
3 404 38 76 
3 76 441 404 
3 38 324 308 
3 76 38 308 
3 388 94 302 
3 388 366 94 
3 366 388 324 
3 388 302 132 
3 184 388 132 
3 388 375 324 
3 375 388 184 
3 375 308 324 
3 308 375 328 
3 73 328 375 
3 132 186 184 
3 186 234 184 
3 186 72 234 
3 73 375 184 
3 234 73 184 
3 234 200 73 
3 396 200 234 
3 227 156 237 
3 75 87 372 
3 75 372 376 
3 235 75 376 
3 75 156 87 
3 156 75 414 
3 414 75 235 
3 235 376 136 
3 23 136 433 
3 235 136 23 
3 414 235 137 
3 137 235 23 
3 72 186 10 
3 237 72 10 
3 237 326 72 
3 72 326 234 
3 363 237 156 
3 237 363 326 
3 313 363 63 
3 396 234 326 
3 313 396 326 
3 363 313 326 
3 259 396 313 
3 63 363 414 
3 414 363 156 
3 63 414 137 
3 63 137 360 
3 313 63 360 
3 76 45 122 
3 179 122 45 
3 308 162 45 
3 45 76 308 
3 162 262 45 
3 179 262 240 
3 45 262 179 
3 240 262 109 
3 162 264 262 
3 329 264 162 
3 109 262 264 
3 329 162 328 
3 328 162 308 
3 328 385 329 
3 200 385 73 
3 73 385 328 
3 438 329 385 
3 243 438 200 
3 385 200 438 
3 169 250 264 
3 169 264 329 
3 438 169 329 
3 109 229 240 
3 229 109 3 
3 3 333 229 
3 109 264 250 
3 325 3 109 
3 250 325 109 
3 3 154 333 
3 325 154 3 
3 325 250 425 
3 183 425 250 
3 15 231 183 
3 15 183 422 
3 231 425 183 
3 425 359 154 
3 154 325 425 
3 281 359 231 
3 359 425 231 
3 169 183 250 
3 422 183 43 
3 43 183 169 
3 447 23 433 
3 447 433 188 
3 442 137 23 
3 442 23 447 
3 447 55 127 
3 55 135 127 
3 298 127 355 
3 127 298 447 
3 447 298 442 
3 396 243 200 
3 259 243 396 
3 438 243 290 
3 290 243 259 
3 313 360 259 
3 379 290 259 
3 360 379 259 
3 43 438 290 
3 422 43 253 
3 253 43 290 
3 379 253 290 
3 427 253 379 
3 360 137 442 
3 360 442 379 
3 298 427 379 
3 379 442 298 
3 334 427 124 
3 36 15 334 
3 281 231 36 
3 36 431 281 
3 36 289 431 
3 124 289 36 
3 15 36 231 
3 36 334 124 
3 135 289 355 
3 289 124 355 
3 355 127 135 
3 355 124 427 
3 427 298 355 
3 334 422 253 
3 334 15 422 
3 427 334 253 
3 391 429 260 
3 43 169 438 
3 141 182 304 
3 449 33 450 
3 344 401 451 
3 2 344 452 
3 218 2 453 
3 401 449 454 
3 33 420 455 
3 420 357 456 
3 357 398 457 
3 398 81 458 
3 152 218 459 
3 417 152 460 
3 84 417 461 
3 65 84 462 
3 207 65 463 
3 222 207 464 
3 312 222 465 
3 356 312 466 
3 225 356 467 
3 418 225 468 
3 14 384 469 
3 81 149 470 
3 149 123 471 
3 123 14 472 
3 384 354 473 
3 354 268 474 
3 268 170 475 
3 307 309 476 
3 208 307 477 
3 301 418 478 
3 173 301 479 
3 309 364 480 
3 364 173 481 
3 170 190 482 
3 190 204 483 
3 204 208 484 
3 449 450 454 
3 455 450 33 
3 451 452 344 
3 452 453 2 
3 218 453 459 
3 454 451 401 
3 456 455 420 
3 457 456 357 
3 458 457 398 
3 470 458 81 
3 152 459 460 
3 417 460 461 
3 84 461 462 
3 65 462 463 
3 207 463 464 
3 222 464 465 
3 312 465 466 
3 356 466 467 
3 225 467 468 
3 418 468 478 
3 14 469 472 
3 471 470 149 
3 472 471 123 
3 473 469 384 
3 474 473 354 
3 475 474 268 
3 482 475 170 
3 309 480 476 
3 476 477 307 
3 208 477 484 
3 301 478 479 
3 173 479 481 
3 364 481 480 
3 483 482 190 
3 484 483 204 
